<?xml version="1.0" standalone="no"?>
<!DOCTYPE svg PUBLIC "-//W3C//DTD SVG 20010904//EN"
 "http://www.w3.org/TR/2001/REC-SVG-20010904/DTD/svg10.dtd">
<svg version="1.0" xmlns="http://www.w3.org/2000/svg"
 width="200.000000pt" height="200.000000pt" viewBox="0 0 200.000000 200.000000"
 preserveAspectRatio="xMidYMid meet">

<g transform="translate(0.000000,200.000000) scale(0.100000,-0.100000)"
fill="#000000" stroke="none">
<path d="M775 1981 c-191 -45 -345 -131 -486 -270 -123 -123 -211 -273 -261
-446 -20 -71 -23 -101 -23 -265 1 -159 4 -196 23 -263 47 -169 137 -323 261
-448 125 -124 279 -214 448 -261 67 -19 104 -22 263 -22 159 0 196 3 263 22
169 47 323 137 448 261 124 125 214 279 261 448 19 67 22 104 22 263 0 159 -3
196 -22 263 -47 169 -137 323 -261 448 -123 122 -272 210 -441 260 -108 31
-379 37 -495 10z m560 -476 c69 -26 146 -104 171 -175 17 -49 19 -86 19 -330
0 -327 -5 -351 -89 -436 -85 -84 -109 -89 -436 -89 -327 0 -351 5 -436 89 -84
85 -89 109 -89 436 0 239 2 282 18 327 36 101 128 176 240 193 29 5 165 7 302
6 212 -3 258 -6 300 -21z"/>
<path d="M698 1426 c-59 -21 -86 -43 -110 -89 -22 -41 -23 -50 -23 -337 l0
-295 25 -43 c15 -27 42 -54 70 -70 l45 -27 295 0 295 0 45 27 c28 16 55 43 70
70 l25 43 0 295 0 295 -25 45 c-17 29 -41 53 -70 70 -45 25 -47 25 -325 27
-217 2 -288 0 -317 -11z m624 -103 c36 -33 13 -93 -37 -93 -48 0 -73 60 -39
94 20 21 53 20 76 -1z m-242 -69 c101 -30 190 -149 190 -254 0 -135 -135 -270
-270 -270 -135 0 -270 135 -270 270 0 134 130 266 266 269 17 1 54 -6 84 -15z"/>
<path d="M906 1156 c-116 -70 -115 -248 2 -314 54 -30 130 -30 184 0 117 66
118 246 2 314 -56 33 -134 33 -188 0z"/>
</g>
</svg>
