<svg width="0" height="0" class="hidden">
  <symbol version="1.0" xmlns="http://www.w3.org/2000/svg" preserveAspectRatio="xMidYMid meet" viewBox="0 0 200 200" id="instagram">
    <g transform="translate(0.000000,200.000000) scale(0.100000,-0.100000)"  stroke="none">
      <path d="M775 1981 c-191 -45 -345 -131 -486 -270 -123 -123 -211 -273 -261
-446 -20 -71 -23 -101 -23 -265 1 -159 4 -196 23 -263 47 -169 137 -323 261
-448 125 -124 279 -214 448 -261 67 -19 104 -22 263 -22 159 0 196 3 263 22
169 47 323 137 448 261 124 125 214 279 261 448 19 67 22 104 22 263 0 159 -3
196 -22 263 -47 169 -137 323 -261 448 -123 122 -272 210 -441 260 -108 31
-379 37 -495 10z m560 -476 c69 -26 146 -104 171 -175 17 -49 19 -86 19 -330
0 -327 -5 -351 -89 -436 -85 -84 -109 -89 -436 -89 -327 0 -351 5 -436 89 -84
85 -89 109 -89 436 0 239 2 282 18 327 36 101 128 176 240 193 29 5 165 7 302
6 212 -3 258 -6 300 -21z"></path>
      <path d="M698 1426 c-59 -21 -86 -43 -110 -89 -22 -41 -23 -50 -23 -337 l0
-295 25 -43 c15 -27 42 -54 70 -70 l45 -27 295 0 295 0 45 27 c28 16 55 43 70
70 l25 43 0 295 0 295 -25 45 c-17 29 -41 53 -70 70 -45 25 -47 25 -325 27
-217 2 -288 0 -317 -11z m624 -103 c36 -33 13 -93 -37 -93 -48 0 -73 60 -39
94 20 21 53 20 76 -1z m-242 -69 c101 -30 190 -149 190 -254 0 -135 -135 -270
-270 -270 -135 0 -270 135 -270 270 0 134 130 266 266 269 17 1 54 -6 84 -15z"></path>
      <path d="M906 1156 c-116 -70 -115 -248 2 -314 54 -30 130 -30 184 0 117 66
118 246 2 314 -56 33 -134 33 -188 0z"></path>
    </g>
  </symbol>
  <symbol version="1.0" xmlns="http://www.w3.org/2000/svg" preserveAspectRatio="xMidYMid meet" viewBox="0 0 200 200" id="telegram">
    <g transform="translate(0.000000,200.000000) scale(0.100000,-0.100000)"  stroke="none">
      <path d="M816 1984 c-479 -95 -816 -501 -816 -984 0 -554 446 -1000 1000
-1000 554 0 1000 446 1000 1000 0 558 -450 1004 -1009 999 -58 0 -137 -7 -175
-15z m666 -613 c18 -25 10 -109 -37 -405 -67 -422 -77 -469 -101 -493 -45 -45
-72 -34 -278 104 -103 70 -195 137 -203 150 -26 39 -1 73 153 213 144 132 194
184 194 201 0 25 -51 -2 -210 -112 -222 -153 -300 -200 -347 -206 -46 -6 -145
18 -231 58 -72 32 -78 51 -24 82 80 47 588 264 882 378 138 53 181 60 202 30z"></path>
    </g>
  </symbol>
  <symbol version="1.0" xmlns="http://www.w3.org/2000/svg" preserveAspectRatio="xMidYMid meet" viewBox="0 0 200 200" id="vk">
    <g transform="translate(0.000000,200.000000) scale(0.100000,-0.100000)"  stroke="none">
      <path d="M817 1984 c-196 -35 -372 -129 -522 -279 -194 -194 -295 -435 -295
-705 0 -270 101 -511 295 -705 153 -153 326 -244 530 -280 324 -56 641 43 875
275 189 187 285 401 297 665 9 205 -37 389 -143 567 -66 112 -220 266 -332
332 -212 126 -467 173 -705 130z m-219 -699 c5 -89 37 -217 72 -286 37 -72
105 -143 163 -169 l42 -19 5 267 5 267 95 0 95 0 3 -152 c2 -113 6 -153 15
-153 6 0 32 9 56 20 66 30 154 126 195 215 l36 75 90 0 c49 0 91 -3 94 -8 8
-14 -34 -124 -71 -181 -41 -66 -81 -110 -145 -161 l-46 -37 63 -42 c83 -54
158 -139 200 -226 59 -123 63 -115 -59 -115 l-105 0 -28 58 c-48 101 -161 193
-257 209 l-36 6 0 -138 0 -138 -89 6 c-170 11 -332 89 -428 206 -94 114 -158
292 -170 469 l-6 93 103 -3 104 -3 4 -60z"></path>
    </g>
  </symbol>
  <symbol version="1.0" xmlns="http://www.w3.org/2000/svg" preserveAspectRatio="xMidYMid meet" viewBox="0 0 200 200" id="yandex-zen">
    <g transform="translate(0.000000,200.000000) scale(0.100000,-0.100000)"  stroke="none">
      <path d="M827 1989 c-117 -18 -287 -87 -397 -162 -66 -45 -196 -173 -246 -243
-91 -127 -174 -342 -174 -450 0 -34 5 -47 27 -64 26 -20 35 -21 133 -15 442
26 604 93 695 288 40 85 60 178 74 342 25 284 10 323 -112 304z"></path>
      <path d="M1100 1988 c-48 -18 -52 -32 -45 -188 22 -567 153 -703 715 -740 155
-10 166 -10 190 8 19 15 26 29 28 67 7 98 -77 315 -173 450 -50 70 -179 197
-247 243 -145 99 -399 186 -468 160z"></path>
      <path d="M37 930 c-22 -17 -27 -30 -27 -64 0 -101 78 -312 162 -434 46 -68
173 -197 243 -247 126 -89 333 -172 441 -177 34 -1 50 4 69 22 22 21 25 32 25
94 0 102 -19 299 -36 386 -20 101 -72 209 -127 264 -107 106 -266 150 -617
171 -98 6 -107 5 -133 -15z"></path>
      <path d="M1735 939 c-162 -11 -313 -43 -401 -83 -174 -81 -246 -223 -273 -541
-17 -191 -15 -257 9 -283 12 -12 28 -22 38 -23 116 -7 332 73 477 176 69 49
197 179 242 245 84 125 163 332 163 430 0 41 -4 52 -26 69 -29 23 -35 23 -229
10z"></path>
    </g>
  </symbol>
</svg>