<?xml version="1.0" standalone="no"?>
<!DOCTYPE svg PUBLIC "-//W3C//DTD SVG 20010904//EN"
 "http://www.w3.org/TR/2001/REC-SVG-20010904/DTD/svg10.dtd">
<svg version="1.0" xmlns="http://www.w3.org/2000/svg"
 width="200.000000pt" height="200.000000pt" viewBox="0 0 200.000000 200.000000"
 preserveAspectRatio="xMidYMid meet">

<g transform="translate(0.000000,200.000000) scale(0.100000,-0.100000)"
fill="#000000" stroke="none">
<path d="M816 1984 c-479 -95 -816 -501 -816 -984 0 -554 446 -1000 1000
-1000 554 0 1000 446 1000 1000 0 558 -450 1004 -1009 999 -58 0 -137 -7 -175
-15z m666 -613 c18 -25 10 -109 -37 -405 -67 -422 -77 -469 -101 -493 -45 -45
-72 -34 -278 104 -103 70 -195 137 -203 150 -26 39 -1 73 153 213 144 132 194
184 194 201 0 25 -51 -2 -210 -112 -222 -153 -300 -200 -347 -206 -46 -6 -145
18 -231 58 -72 32 -78 51 -24 82 80 47 588 264 882 378 138 53 181 60 202 30z"/>
</g>
</svg>
