<?xml version="1.0" standalone="no"?>
<!DOCTYPE svg PUBLIC "-//W3C//DTD SVG 20010904//EN"
 "http://www.w3.org/TR/2001/REC-SVG-20010904/DTD/svg10.dtd">
<svg version="1.0" xmlns="http://www.w3.org/2000/svg"
 width="200.000000pt" height="200.000000pt" viewBox="0 0 200.000000 200.000000"
 preserveAspectRatio="xMidYMid meet">

<g transform="translate(0.000000,200.000000) scale(0.100000,-0.100000)"
fill="#000000" stroke="none">
<path d="M817 1984 c-196 -35 -372 -129 -522 -279 -194 -194 -295 -435 -295
-705 0 -270 101 -511 295 -705 153 -153 326 -244 530 -280 324 -56 641 43 875
275 189 187 285 401 297 665 9 205 -37 389 -143 567 -66 112 -220 266 -332
332 -212 126 -467 173 -705 130z m-219 -699 c5 -89 37 -217 72 -286 37 -72
105 -143 163 -169 l42 -19 5 267 5 267 95 0 95 0 3 -152 c2 -113 6 -153 15
-153 6 0 32 9 56 20 66 30 154 126 195 215 l36 75 90 0 c49 0 91 -3 94 -8 8
-14 -34 -124 -71 -181 -41 -66 -81 -110 -145 -161 l-46 -37 63 -42 c83 -54
158 -139 200 -226 59 -123 63 -115 -59 -115 l-105 0 -28 58 c-48 101 -161 193
-257 209 l-36 6 0 -138 0 -138 -89 6 c-170 11 -332 89 -428 206 -94 114 -158
292 -170 469 l-6 93 103 -3 104 -3 4 -60z"/>
</g>
</svg>
