<?xml version="1.0" standalone="no"?>
<!DOCTYPE svg PUBLIC "-//W3C//DTD SVG 20010904//EN"
 "http://www.w3.org/TR/2001/REC-SVG-20010904/DTD/svg10.dtd">
<svg version="1.0" xmlns="http://www.w3.org/2000/svg"
 width="200.000000pt" height="200.000000pt" viewBox="0 0 200.000000 200.000000"
 preserveAspectRatio="xMidYMid meet">

<g transform="translate(0.000000,200.000000) scale(0.100000,-0.100000)"
fill="#000000" stroke="none">
<path d="M827 1989 c-117 -18 -287 -87 -397 -162 -66 -45 -196 -173 -246 -243
-91 -127 -174 -342 -174 -450 0 -34 5 -47 27 -64 26 -20 35 -21 133 -15 442
26 604 93 695 288 40 85 60 178 74 342 25 284 10 323 -112 304z"/>
<path d="M1100 1988 c-48 -18 -52 -32 -45 -188 22 -567 153 -703 715 -740 155
-10 166 -10 190 8 19 15 26 29 28 67 7 98 -77 315 -173 450 -50 70 -179 197
-247 243 -145 99 -399 186 -468 160z"/>
<path d="M37 930 c-22 -17 -27 -30 -27 -64 0 -101 78 -312 162 -434 46 -68
173 -197 243 -247 126 -89 333 -172 441 -177 34 -1 50 4 69 22 22 21 25 32 25
94 0 102 -19 299 -36 386 -20 101 -72 209 -127 264 -107 106 -266 150 -617
171 -98 6 -107 5 -133 -15z"/>
<path d="M1735 939 c-162 -11 -313 -43 -401 -83 -174 -81 -246 -223 -273 -541
-17 -191 -15 -257 9 -283 12 -12 28 -22 38 -23 116 -7 332 73 477 176 69 49
197 179 242 245 84 125 163 332 163 430 0 41 -4 52 -26 69 -29 23 -35 23 -229
10z"/>
</g>
</svg>
